<?xml version="1.0" encoding="UTF-8" standalone="no"?>
<svg
   xmlns:dc="http://purl.org/dc/elements/1.1/"
   xmlns:cc="http://creativecommons.org/ns#"
   xmlns:rdf="http://www.w3.org/1999/02/22-rdf-syntax-ns#"
   xmlns:svg="http://www.w3.org/2000/svg"
   xmlns="http://www.w3.org/2000/svg"
   viewBox="0 0 1122.52 793.70135"
   height="793.70135"
   width="1122.52"
   xml:space="preserve"
   id="svg2"
   version="1.1"><metadata
     id="metadata8"><rdf:RDF><cc:Work
         rdf:about=""><dc:format>image/svg+xml</dc:format><dc:type
           rdf:resource="http://purl.org/dc/dcmitype/StillImage" /></cc:Work></rdf:RDF></metadata><defs
     id="defs6"><clipPath
       id="clipPath18"
       clipPathUnits="userSpaceOnUse"><path
         id="path16"
         d="M 0,595.276 H 841.89 V 0 H 0 Z" /></clipPath><radialGradient
       id="radialGradient38"
       spreadMethod="pad"
       gradientTransform="matrix(102.29951,0,0,-102.29951,169.23291,383.72754)"
       gradientUnits="userSpaceOnUse"
       r="1"
       cy="0"
       cx="0"
       fy="0"
       fx="0"><stop
         id="stop34"
         offset="0"
         style="stop-opacity:1;stop-color:#5ecade" /><stop
         id="stop36"
         offset="1"
         style="stop-opacity:1;stop-color:#0d4d84" /></radialGradient></defs><g
     transform="matrix(1.3333333,0,0,-1.3333333,0,793.70133)"
     id="g10"><g
       id="g12"><g
         clip-path="url(#clipPath18)"
         id="g14"><path
           id="path20"
           style="fill:#ffffff;fill-opacity:1;fill-rule:nonzero;stroke:none"
           d="m 194.923,336.333 c 0,-35.633 -28.886,-64.515 -64.515,-64.515 -35.631,0 -64.517,28.882 -64.517,64.515 0,35.633 28.886,64.517 64.517,64.517 35.629,0 64.515,-28.884 64.515,-64.517" /><g
           id="g22"><g
             id="g24"><g
               id="g30"><g
                 id="g32"><path
                   id="path40"
                   style="fill:url(#radialGradient38);stroke:none"
                   d="m 65.891,336.333 c 0,-1.453 0.066,-2.891 0.16,-4.321 1.78,4.344 3.774,9.309 5.993,14.91 l 2.416,6.105 c 5.356,13.532 9.169,23.551 11.412,29.959 C 73.569,371.237 65.891,354.688 65.891,336.333 m 119.634,-21.029 c -1.473,-2.763 -3.597,-7.642 -6.307,-14.486 l -4.281,-11.146 c 12.307,11.75 19.986,28.305 19.986,46.661 0,1.889 -0.097,3.757 -0.259,5.603 l -1.387,2.85 c -1.361,2.803 -3.432,4.939 -6.15,6.333 -2.823,1.445 -6.419,2.18 -10.691,2.18 -8.651,0 -16.727,-2.857 -24.008,-8.495 -7.341,-5.691 -13.04,-13.563 -16.932,-23.392 -3.78,-9.556 -4.079,-17.015 -0.889,-22.172 3.15,-5.106 9.576,-7.697 19.046,-7.697 l 4.511,0.215 c 1.073,0.112 2.662,0.319 3.961,0.555 0.971,2.399 5.055,12.537 5.055,12.537 2.02,5.112 3.379,9.102 4.035,11.859 0.342,1.44 0.519,2.647 0.519,3.579 0,0.78 -0.128,1.18 -0.199,1.342 l -1.143,2.493 h 22.682 l -3.429,-3.068 c -1.332,-1.197 -2.718,-3.13 -4.12,-5.751 M 144.669,281.33 c -10.694,0.101 -20.291,4.163 -28.515,12.377 -9.121,9.147 -16.261,21.358 -21.219,36.289 -1.823,5.44 -3.278,11.432 -4.361,17.806 h -1.173 c -0.843,-2.139 -3.568,-9.012 -3.568,-9.012 -5.724,-14.47 -9.178,-23.901 -10.266,-28.025 -0.626,-2.361 -0.942,-4.272 -0.942,-5.677 0,-0.764 0.096,-1.219 0.186,-1.477 11.221,-19.023 31.912,-31.793 55.597,-31.793 14.029,0 26.997,4.489 37.582,12.093 -0.278,0.006 -0.564,0.009 -0.868,0.006 -2.947,-0.878 -9.529,-2.707 -22.453,-2.587 m -35.809,86.357 c 12.471,9.407 21.03,16.163 25.44,20.076 5.233,4.643 6.908,7.08 7.392,8.306 l 0.264,0.654 c 0.095,0.314 0.18,0.571 0.265,0.795 0.003,0.094 0.099,1.584 0.136,2.208 -3.875,0.726 -7.863,1.124 -11.949,1.124 -5.172,0 -10.193,-0.626 -15.012,-1.775 l -3.291,-2.578 c -1.756,-1.38 -3.7,-4.08 -5.785,-8.027 -2.179,-4.123 -6.179,-13.521 -11.882,-27.943 0,0 -0.533,-1.345 -1.052,-2.653 1.09,0.418 2.191,0.907 3.349,1.56 2.974,1.669 7.056,4.447 12.125,8.253 m 6.199,-48.895 c 0.667,-1.735 1.377,-3.398 2.123,-5.006 0.592,2.259 1.367,4.619 2.343,7.096 5,12.622 13.259,22.754 24.551,30.11 h 0.002 c 11.267,7.331 24.311,11.049 38.767,11.049 2.119,0 4.423,-0.085 6.847,-0.239 -5.9,13.713 -16.417,24.957 -29.592,31.802 -4.141,-2.585 -9.89,-6.513 -17.179,-11.74 -10.081,-7.225 -22.275,-16.356 -36.24,-27.125 2.143,-14.908 4.959,-27.008 8.378,-35.947" /></g></g></g></g><path
           id="path42"
           style="fill:#ffffff;fill-opacity:1;fill-rule:nonzero;stroke:none"
           d="m 218.409,312.473 0.139,1.045 2.507,0.419 c 1.764,0.277 3.015,1.078 3.759,2.401 0.741,1.323 1.461,4.027 2.158,8.115 l 4.176,23.811 c 0.558,3.024 0.836,5.233 0.836,6.63 0,1.303 -0.219,2.22 -0.662,2.754 -0.441,0.536 -1.241,0.921 -2.399,1.155 l -2.368,0.417 0.139,1.047 h 10.581 11.488 l -0.207,-1.047 -2.846,-0.419 c -1.988,-0.373 -3.353,-1.153 -4.093,-2.339 -0.741,-1.19 -1.482,-3.92 -2.222,-8.204 l -1.853,-10.16 c 1.914,0.324 4.112,1.443 6.589,3.372 l 10.759,8.743 c 3.388,2.607 5.198,4.584 5.431,5.937 0.233,1.532 -0.578,2.465 -2.437,2.791 l -1.95,0.279 0.211,1.047 h 9.815 8.773 l -0.139,-1.049 -1.323,-0.209 c -2.876,-0.466 -6.197,-2.192 -9.954,-5.176 l -16.99,-13.23 14.831,-22.066 c 1.159,-1.673 2.146,-2.822 2.96,-3.451 0.812,-0.628 1.797,-1.055 2.956,-1.288 l 1.393,-0.208 -0.207,-1.117 H 257.396 245.84 l 0.139,1.038 2.157,0.276 c 2.322,0.323 3.599,1.154 3.831,2.49 0.045,0.46 -0.077,1.031 -0.366,1.698 -0.29,0.667 -0.777,1.463 -1.455,2.385 l -8.792,13.472 c -0.641,1.026 -1.249,1.761 -1.822,2.204 -0.573,0.446 -1.293,0.667 -2.163,0.667 l -2.15,-12.257 c -0.241,-1.301 -0.447,-2.517 -0.615,-3.654 -0.167,-1.139 -0.253,-2.124 -0.253,-2.959 0,-1.345 0.255,-2.273 0.767,-2.785 0.51,-0.509 1.415,-0.883 2.715,-1.112 l 2.716,-0.418 -0.139,-1.045 h -11.42 z" /><path
           id="path44"
           style="fill:#ffffff;fill-opacity:1;fill-rule:nonzero;stroke:none"
           d="m 288.637,313.199 c 4.083,0 7.496,2.236 10.243,6.713 2.746,4.477 4.12,9.871 4.12,16.185 0,4.307 -0.855,7.695 -2.561,10.165 -1.709,2.47 -4.25,3.707 -7.629,3.707 -4.008,0 -7.385,-2.276 -10.13,-6.824 -2.748,-4.551 -4.12,-10.02 -4.12,-16.407 0,-4.272 0.778,-7.54 2.337,-9.807 1.707,-2.488 4.286,-3.732 7.74,-3.732 m -0.725,-1.378 c -5.127,0 -9.213,1.466 -12.256,4.4 -3.043,2.93 -4.567,6.826 -4.567,11.688 0,6.941 2.377,12.655 7.13,17.147 4.457,4.195 9.747,6.29 15.874,6.29 4.975,0 8.949,-1.449 11.92,-4.341 2.972,-2.894 4.456,-6.738 4.456,-11.523 0,-6.979 -2.303,-12.732 -6.905,-17.259 -4.345,-4.268 -9.563,-6.402 -15.652,-6.402" /><path
           id="path46"
           style="fill:#ffffff;fill-opacity:1;fill-rule:nonzero;stroke:none"
           d="m 331.933,312.255 -8.576,30.647 -4.457,-20.943 c -0.183,-0.815 -0.334,-1.614 -0.446,-2.392 -0.11,-0.782 -0.166,-1.452 -0.166,-2.008 0,-1.299 0.316,-2.265 0.947,-2.896 0.519,-0.519 1.448,-0.908 2.786,-1.169 l 1.058,-0.167 -0.111,-0.835 -6.963,0.111 -6.516,-0.111 0.112,0.835 0.726,0.109 c 1.896,0.334 3.236,1.02 4.018,2.06 0.781,1.043 1.56,3.212 2.345,6.518 l 4.387,18.881 c 0.442,1.894 0.666,3.396 0.666,4.513 0,1.223 -0.234,2.132 -0.698,2.724 -0.464,0.595 -1.197,1.021 -2.201,1.282 l -1.947,0.446 0.166,0.834 h 5.901 2.673 2.394 l 7.947,-29.736 18.05,29.736 h 4.462 6.473 l -0.165,-0.834 -2,-0.335 c -1.558,-0.261 -2.651,-0.928 -3.281,-2.003 -0.741,-1.263 -1.315,-3.509 -1.722,-6.74 l -2.639,-19.539 c -0.06,-0.705 -0.109,-1.329 -0.153,-1.866 -0.043,-0.54 -0.065,-1.162 -0.065,-1.867 0,-1.376 0.203,-2.336 0.61,-2.871 0.409,-0.542 1.115,-0.903 2.119,-1.089 l 1.616,-0.222 -0.113,-0.836 -8.464,0.111 -9.079,-0.111 0.166,0.835 2.451,0.335 c 1.485,0.258 2.533,0.871 3.146,1.838 0.612,0.965 1.105,2.875 1.475,5.735 l 2.788,21.834 -18.882,-30.814 z" /><path
           id="path48"
           style="fill:#ffffff;fill-opacity:1;fill-rule:nonzero;stroke:none"
           d="m 362.832,312.473 0.109,0.837 2.011,0.334 c 1.417,0.224 2.42,0.864 3.016,1.924 0.598,1.063 1.175,3.226 1.735,6.499 l 3.331,19.052 c 0.439,2.436 0.657,4.219 0.657,5.341 0,1.05 -0.176,1.791 -0.529,2.221 -0.353,0.431 -0.993,0.741 -1.922,0.931 l -1.894,0.338 0.113,0.744 h 8.796 6.514 c 4.269,0 7.648,-0.86 10.134,-2.582 2.485,-1.722 3.729,-4.124 3.729,-7.206 0,-3.898 -1.549,-6.945 -4.648,-9.134 -3.099,-2.191 -7.151,-3.285 -12.162,-3.285 l -0.056,0.834 c 3.169,0.632 5.543,1.876 7.127,3.731 1.804,2.117 2.706,5.05 2.706,8.802 0,2.523 -0.741,4.435 -2.218,5.735 -1.293,1.151 -2.992,1.726 -5.097,1.726 -0.774,0 -1.346,-0.03 -1.714,-0.094 -0.368,-0.064 -0.925,-0.201 -1.665,-0.414 l -4.652,-26.735 c -0.408,-2.381 -0.611,-4.094 -0.611,-5.134 0,-1.117 0.237,-1.886 0.722,-2.316 0.483,-0.428 1.336,-0.754 2.564,-0.978 l 2.005,-0.332 -0.167,-0.839 h -9.302 z" /><path
           id="path50"
           style="fill:#ffffff;fill-opacity:1;fill-rule:nonzero;stroke:none"
           d="m 418.859,328.719 -3.356,16.765 -9.379,-16.765 z m -13.693,-1.813 -2.854,-5.255 c -0.495,-0.818 -0.936,-1.66 -1.315,-2.53 -0.381,-0.872 -0.609,-1.53 -0.685,-1.975 -0.075,-0.444 -0.116,-0.834 -0.116,-1.169 0,-0.665 0.195,-1.204 0.586,-1.611 0.387,-0.408 1.03,-0.686 1.921,-0.836 l 1.671,-0.224 -0.166,-0.833 h -6.518 -6.737 l 0.165,0.839 0.947,0.168 c 1.263,0.258 2.44,0.899 3.537,1.925 1.094,1.023 2.237,2.556 3.425,4.605 l 16.543,28.797 4.121,2.758 h 1.059 l 6.853,-32.78 c 0.296,-1.601 0.74,-2.822 1.334,-3.658 0.593,-0.838 1.43,-1.35 2.509,-1.537 l 1.223,-0.222 -0.109,-0.895 h -7.965 -9.303 l 0.112,0.837 1.782,0.223 c 2.23,0.337 3.454,1.23 3.676,2.681 0.036,0.184 0.057,0.398 0.057,0.642 v 0.583 1.282 c -0.122,0.447 -0.205,0.764 -0.244,0.95 l -1.439,7.235 z" /><path
           id="path52"
           style="fill:#ffffff;fill-opacity:1;fill-rule:nonzero;stroke:none"
           d="m 447.811,312.039 c -2.525,0 -4.733,0.188 -6.628,0.558 -1.893,0.37 -3.451,0.855 -4.676,1.452 l 0.109,8.143 1.006,-0.009 0.667,-1.955 c 1.56,-4.541 4.974,-6.811 10.244,-6.811 2.525,0 4.624,0.688 6.295,2.065 1.856,1.525 2.782,3.644 2.782,6.362 0,1.602 -0.566,2.928 -1.699,3.988 -1.132,1.063 -3.131,2.148 -5.992,3.268 -3.31,1.303 -5.672,2.66 -7.082,4.073 -1.562,1.563 -2.341,3.535 -2.341,5.918 0,3.608 1.394,6.566 4.181,8.874 2.637,2.158 5.837,3.237 9.59,3.237 2.338,0 4.329,-0.148 5.964,-0.44 1.634,-0.295 3.137,-0.737 4.515,-1.327 l -0.169,-8.469 h -1.002 l -0.612,2.006 c -0.708,2.339 -1.778,4.067 -3.208,5.181 -1.432,1.111 -3.412,1.669 -5.939,1.669 -2.232,0 -4.092,-0.707 -5.579,-2.12 -1.487,-1.415 -2.231,-3.256 -2.231,-5.526 0,-1.71 0.505,-3.06 1.506,-4.044 1.004,-0.987 2.843,-2.019 5.521,-3.097 3.603,-1.452 6.152,-2.886 7.637,-4.299 1.635,-1.565 2.453,-3.479 2.453,-5.749 0,-4.056 -1.54,-7.274 -4.622,-9.655 -2.821,-2.197 -6.383,-3.293 -10.69,-3.293" /><path
           id="path54"
           style="fill:#ffffff;fill-opacity:1;fill-rule:nonzero;stroke:none"
           d="m 508.16,311.748 c -7.056,0 -12.742,1.893 -17.057,5.678 -4.314,3.783 -6.474,8.925 -6.474,15.428 0,8.449 3.251,15.389 9.747,20.821 5.801,4.83 12.275,7.243 19.422,7.243 3.017,0 5.859,-0.287 8.528,-0.866 2.667,-0.58 5.095,-1.381 7.275,-2.4 l -0.281,-10.921 h -1.25 l -0.973,2.727 c -2.412,6.48 -6.911,9.723 -13.497,9.723 -5.523,0 -10.196,-2.703 -14.021,-8.107 -3.823,-5.402 -5.736,-12.318 -5.736,-20.747 0,-5.357 1.295,-9.501 3.892,-12.437 2.596,-2.936 6.283,-4.4 11.057,-4.4 2.736,0 4.789,0.545 6.157,1.635 1.364,1.09 2.259,2.934 2.679,5.535 l 0.137,1.045 c 0.186,1.16 0.314,2.075 0.383,2.748 0.067,0.672 0.105,1.312 0.105,1.915 0,1.393 -0.277,2.38 -0.836,2.961 -0.559,0.58 -1.555,0.984 -2.994,1.218 l -2.508,0.418 0.14,1.045 10.932,-0.141 9.538,0.141 -0.206,-1.045 -2.09,-0.349 c -1.719,-0.279 -2.94,-0.987 -3.657,-2.122 -0.721,-1.139 -1.289,-3.008 -1.708,-5.606 l -0.138,-0.835 c -0.09,-0.606 -0.173,-1.126 -0.244,-1.568 -0.069,-0.441 -0.104,-0.939 -0.104,-1.498 0,-0.834 0.175,-1.448 0.525,-1.843 0.345,-0.395 1.007,-0.803 1.981,-1.218 l -0.136,-0.835 c -2.556,-1.022 -5.375,-1.836 -8.458,-2.439 -3.09,-0.599 -6.465,-0.904 -10.13,-0.904" /><path
           id="path56"
           style="fill:#ffffff;fill-opacity:1;fill-rule:nonzero;stroke:none"
           d="m 551.179,331.257 c 2.945,0 5.318,0.932 7.118,2.793 1.951,2.011 2.925,4.894 2.925,8.655 0,2.159 -0.588,3.824 -1.762,4.997 -1.181,1.173 -3.001,1.759 -5.467,1.759 -1.068,0 -2.3,-0.199 -3.697,-0.597 l -2.983,-17.333 c 0.775,-0.184 2.061,-0.274 3.866,-0.274 m 6.159,-0.552 6.132,-11.808 c 1.187,-2.276 2.18,-3.758 2.979,-4.447 0.798,-0.69 1.976,-1.033 3.535,-1.033 v -0.827 c -1.559,-0.222 -3.139,-0.335 -4.737,-0.335 -2.264,0 -4.066,0.475 -5.405,1.425 -1.339,0.947 -2.489,2.405 -3.454,4.375 l -6.022,11.92 -3.36,0.194 -1.416,-8.097 c -0.186,-1.028 -0.346,-1.994 -0.474,-2.895 -0.131,-0.902 -0.196,-1.679 -0.196,-2.344 0,-1.065 0.206,-1.802 0.613,-2.204 0.409,-0.404 1.134,-0.698 2.174,-0.881 l 2.17,-0.331 -0.11,-0.925 -9.133,0.111 -8.469,-0.111 0.112,0.925 2.012,0.331 c 1.415,0.219 2.418,0.855 3.014,1.899 0.598,1.049 1.176,3.188 1.732,6.42 l 3.327,19.052 c 0.44,2.441 0.664,4.226 0.664,5.353 0,1.052 -0.175,1.792 -0.527,2.224 -0.353,0.434 -0.996,0.745 -1.921,0.933 l -1.895,0.338 0.111,0.727 h 8.798 7.187 c 4.382,0 7.723,-0.8 10.025,-2.4 2.304,-1.603 3.454,-3.781 3.454,-6.535 0,-2.751 -1.06,-5.134 -3.176,-7.146 -1.895,-1.789 -4.474,-3.091 -7.744,-3.908" /><path
           id="path58"
           style="fill:#ffffff;fill-opacity:1;fill-rule:nonzero;stroke:none"
           d="m 599.517,328.719 -3.359,16.765 -9.378,-16.765 z m -13.693,-1.813 -2.852,-5.255 c -0.497,-0.818 -0.933,-1.66 -1.317,-2.53 -0.38,-0.872 -0.608,-1.53 -0.684,-1.975 -0.079,-0.444 -0.114,-0.834 -0.114,-1.169 0,-0.665 0.193,-1.204 0.583,-1.611 0.392,-0.408 1.031,-0.686 1.923,-0.836 l 1.671,-0.224 -0.169,-0.833 h -6.513 -6.742 l 0.167,0.839 0.948,0.168 c 1.262,0.258 2.44,0.899 3.536,1.925 1.094,1.023 2.236,2.556 3.427,4.605 l 16.544,28.797 4.116,2.758 h 1.061 l 6.852,-32.78 c 0.296,-1.601 0.741,-2.822 1.334,-3.658 0.595,-0.838 1.433,-1.35 2.508,-1.537 l 1.225,-0.222 -0.111,-0.895 h -7.964 -9.303 l 0.113,0.837 1.778,0.223 c 2.23,0.337 3.457,1.23 3.68,2.681 0.038,0.184 0.055,0.398 0.055,0.642 v 0.583 1.282 c -0.123,0.447 -0.201,0.764 -0.243,0.95 l -1.439,7.235 z" /><path
           id="path60"
           style="fill:#ffffff;fill-opacity:1;fill-rule:nonzero;stroke:none"
           d="m 638.524,312.255 -8.576,30.647 -4.456,-20.943 c -0.183,-0.815 -0.334,-1.614 -0.445,-2.392 -0.11,-0.782 -0.169,-1.452 -0.169,-2.008 0,-1.299 0.317,-2.265 0.949,-2.896 0.519,-0.519 1.446,-0.908 2.785,-1.169 l 1.056,-0.167 -0.108,-0.835 -6.964,0.111 -6.518,-0.111 0.115,0.835 0.723,0.109 c 1.899,0.334 3.239,1.02 4.019,2.06 0.784,1.043 1.561,3.212 2.342,6.518 l 4.391,18.881 c 0.444,1.894 0.666,3.396 0.666,4.513 0,1.223 -0.233,2.132 -0.695,2.724 -0.466,0.595 -1.201,1.021 -2.202,1.282 l -1.95,0.446 0.167,0.834 h 5.902 2.67 2.397 l 7.944,-29.736 18.052,29.736 h 4.463 6.474 l -0.167,-0.834 -1.999,-0.335 c -1.559,-0.261 -2.651,-0.928 -3.283,-2.003 -0.74,-1.263 -1.31,-3.509 -1.72,-6.74 l -2.639,-19.539 c -0.06,-0.705 -0.109,-1.329 -0.154,-1.866 -0.042,-0.54 -0.066,-1.162 -0.066,-1.867 0,-1.376 0.204,-2.336 0.612,-2.871 0.407,-0.542 1.114,-0.903 2.12,-1.089 l 1.613,-0.222 -0.11,-0.836 -8.465,0.111 -9.079,-0.111 0.166,0.835 2.451,0.335 c 1.483,0.258 2.534,0.871 3.145,1.838 0.614,0.965 1.104,2.875 1.475,5.735 l 2.787,21.834 -18.881,-30.814 z" /><path
           id="path62"
           style="fill:#ffffff;fill-opacity:1;fill-rule:nonzero;stroke:none"
           d="m 669.305,312.473 0.165,0.839 2.004,0.332 c 1.411,0.226 2.409,0.857 3.001,1.898 0.594,1.043 1.188,3.218 1.783,6.53 l 3.336,19.052 c 0.416,2.556 0.627,4.36 0.627,5.413 0,1.09 -0.168,1.842 -0.502,2.255 -0.333,0.416 -0.966,0.696 -1.894,0.848 l -1.892,0.338 0.112,0.716 h 10.582 13.087 4.565 l 0.227,-8.051 h -0.892 l -1.058,2.076 c -0.888,1.758 -1.903,2.961 -3.034,3.614 -1.13,0.657 -2.921,0.982 -5.372,0.982 h -1.113 c -1.114,0 -2.091,-0.057 -2.925,-0.169 -0.834,-0.113 -1.717,-0.282 -2.642,-0.508 l -2.727,-15.541 4.231,0.118 c 2.931,0 4.914,0.287 5.954,0.865 1.037,0.575 1.801,1.752 2.284,3.533 l 0.388,1.502 h 1.057 l -1.334,-6.738 -1.061,-6.796 h -1.058 l 0.055,1.133 c 0,1.851 -0.355,3.08 -1.058,3.684 -0.854,0.72 -2.712,1.077 -5.57,1.077 h -4.175 l -1.838,-10.517 c -0.3,-1.63 -0.448,-2.882 -0.448,-3.752 0,-1.365 0.353,-2.265 1.059,-2.7 0.704,-0.437 2.042,-0.655 4.009,-0.655 h 2.173 c 2.45,0 4.326,0.302 5.625,0.908 1.301,0.605 2.823,1.929 4.568,3.968 l 1.617,1.87 0.89,0.026 -3.12,-8.15 h -5.959 -13.311 z" /><path
           id="path64"
           style="fill:#ffffff;fill-opacity:1;fill-rule:nonzero;stroke:none"
           d="m 722.544,313.777 c 4.794,0 8.64,2.004 11.537,6.007 2.898,4.005 4.349,9.082 4.349,15.228 0,4.58 -1.198,8.111 -3.596,10.589 -2.399,2.477 -5.861,3.714 -10.396,3.714 -0.593,0 -1.02,-0.021 -1.281,-0.068 -0.26,-0.045 -0.686,-0.137 -1.279,-0.274 l -5.016,-28.185 c -0.076,-0.447 -0.139,-0.887 -0.198,-1.315 -0.057,-0.433 -0.084,-0.906 -0.084,-1.431 0,-1.609 0.458,-2.722 1.367,-3.34 0.91,-0.614 2.445,-0.925 4.597,-0.925 m -0.901,-1.377 c -2.338,0 -4.176,0.024 -5.511,0.07 -1.339,0.045 -2.634,0.088 -3.898,0.133 l -8.575,-0.203 0.166,0.844 2.018,0.338 c 1.418,0.226 2.413,0.852 2.997,1.88 0.579,1.03 1.162,3.232 1.762,6.604 l 3.316,19.053 c 0.436,2.436 0.658,4.234 0.658,5.399 0,1.049 -0.178,1.79 -0.53,2.22 -0.355,0.43 -0.993,0.723 -1.921,0.874 l -1.894,0.338 0.166,0.744 h 7.408 7.013 c 6.572,0 11.703,-1.458 15.398,-4.375 3.691,-2.917 5.537,-7.014 5.537,-12.292 0,-6.541 -2.376,-11.835 -7.128,-15.885 -4.491,-3.827 -10.15,-5.742 -16.982,-5.742" /><path
           id="path66"
           style="fill:#ffffff;fill-opacity:1;fill-rule:nonzero;stroke:none"
           d="m 744.396,312.473 0.167,0.839 2.061,0.332 c 1.782,0.299 2.988,0.921 3.621,1.87 0.632,0.948 1.243,3.135 1.837,6.558 l 3.288,19.048 c 0.446,2.414 0.666,4.154 0.666,5.231 0,1.077 -0.22,1.821 -0.666,2.227 -0.446,0.41 -1.265,0.724 -2.453,0.947 l -2.004,0.335 0.166,0.834 h 9.249 9.3 l -0.11,-0.834 -2.125,-0.335 c -1.788,-0.295 -2.997,-0.919 -3.629,-1.864 -0.633,-0.944 -1.248,-3.126 -1.844,-6.537 l -3.285,-19.05 c -0.433,-2.418 -0.648,-4.169 -0.648,-5.246 0,-1.079 0.222,-1.823 0.67,-2.233 0.445,-0.412 1.261,-0.725 2.45,-0.951 l 2.004,-0.332 -0.165,-0.839 h -9.247 z" /><path
           id="path68"
           style="fill:#ffffff;fill-opacity:1;fill-rule:nonzero;stroke:none"
           d="m 793.787,328.719 -3.359,16.765 -9.379,-16.765 z m -13.697,-1.813 -2.849,-5.255 c -0.496,-0.818 -0.936,-1.66 -1.317,-2.53 -0.381,-0.872 -0.609,-1.53 -0.682,-1.975 -0.079,-0.444 -0.117,-0.834 -0.117,-1.169 0,-0.665 0.193,-1.204 0.582,-1.611 0.392,-0.408 1.034,-0.686 1.924,-0.836 l 1.671,-0.224 -0.166,-0.833 h -6.518 -6.738 l 0.163,0.839 0.949,0.168 c 1.264,0.258 2.442,0.899 3.537,1.925 1.096,1.023 2.238,2.556 3.424,4.605 l 16.542,28.797 4.124,2.758 h 1.061 l 6.849,-32.78 c 0.299,-1.601 0.739,-2.822 1.336,-3.658 0.593,-0.838 1.429,-1.35 2.508,-1.537 l 1.224,-0.222 -0.111,-0.895 h -7.966 -9.303 l 0.111,0.837 1.784,0.223 c 2.229,0.337 3.455,1.23 3.676,2.681 0.036,0.184 0.056,0.398 0.056,0.642 v 0.583 1.282 c -0.121,0.447 -0.202,0.764 -0.244,0.95 l -1.435,7.235 z" /></g></g></g></svg>